# xmcd CD database file
#
# Track frame offsets:
#	150
#	13466
#	29886
#	53619
#	70401
#	86235
#	105621
#	123939
#	140135
#	156772
#	170511
#	184143
#	204250
#	219326
#	241850
#	259439
#
# Disc length: 3686 seconds
#
# Revision: 0
# Processed by: cddbd v1.4b41PL1 Copyright (c) Steve Scherf et al.
# Submitted via: Feurio! 1.61 - http://www.feurio.com
#
DISCID=f00e6410
DTITLE=Marianne Rosenberg - Golden Stars
DYEAR=1900
DGENRE=
TTITLE0=Fremder Mann
TTITLE1=Warum gerade ich
TTITLE2=Wie weiß ich, daß es Liebe ist
TTITLE3=Mr Paul McCartney
TTITLE4=Er ist nicht wie Du
TTITLE5=Marleen
TTITLE6=Flüsterndes Gras
TTITLE7=Wären Tränen aus Gold
TTITLE8=Ich bin wie Du
TTITLE9=Er gehört zu mir
TTITLE10=Lieder der Nacht
TTITLE11=Herz aus Glas
TTITLE12=Jeder Weg hat mal ein Ende
TTITLE13=Ich denk an Dich
TTITLE14=Ich hab' auf Liebe gesetzt
TTITLE15=Geh' vorbei
EXTD=
EXTT0=
EXTT1=
EXTT2=
EXTT3=
EXTT4=
EXTT5=
EXTT6=
EXTT7=
EXTT8=
EXTT9=
EXTT10=
EXTT11=
EXTT12=
EXTT13=
EXTT14=
EXTT15=
PLAYORDER=
